# Blender 3.6.0
# www.blender.org
mtllib A.mtl
o Cube
v -0.366834 6.668378 0.366834
v -1.000000 4.879738 1.000000
v -0.366834 6.668378 -0.366834
v -1.000000 4.879738 -1.000000
v 0.366834 6.668378 0.366834
v 1.000000 4.879738 1.000000
v 0.366834 6.668378 -0.366834
v 1.000000 4.879738 -1.000000
v -0.666050 5.668378 0.666050
v 0.666050 5.668378 -0.666050
v -0.666050 5.668378 -0.666050
v 0.666050 5.668378 0.666050
v 1.000000 4.879738 0.000000
v -0.366834 6.668378 0.000000
v 0.366834 6.668378 0.000000
v -1.000000 4.879738 0.000000
v -0.666050 5.668378 0.000000
v 0.666050 5.668378 0.000000
v -2.225451 0.617668 -2.856530
v -0.225451 0.617668 -2.856530
v -0.225451 0.617668 -1.856530
v -2.225451 0.617668 -1.856530
v -2.265166 0.590966 2.931617
v -0.265166 0.590966 2.931617
v -0.265166 0.590966 1.931617
v -2.265166 0.590966 1.931617
v -1.612725 2.748703 -0.928265
v 0.387275 2.748703 -0.928265
v -1.612725 2.748703 -1.928265
v 0.387275 2.748703 -1.928265
v 0.367417 2.735352 0.965808
v -1.632583 2.735352 0.965808
v -1.632583 2.735352 1.965808
v 0.367417 2.735352 1.965808
v 0.693637 3.814221 -0.464133
v -1.306363 3.814221 -0.464133
v -1.306363 3.814221 -1.464133
v 0.693637 3.814221 -1.464133
v -1.919088 1.683185 -1.392398
v -1.919088 1.683185 -2.392398
v 0.080912 1.683185 -2.392398
v 0.080912 1.683185 -1.392398
v 0.051126 1.663159 1.448712
v -1.948874 1.663159 2.448712
v -1.948874 1.663159 1.448712
v 0.051126 1.663159 2.448712
v -1.316291 3.807545 0.482904
v 0.683709 3.807545 1.482904
v 0.683709 3.807545 0.482904
v -1.316291 3.807545 1.482904
v 0.525563 3.271449 0.724356
v -1.474437 3.271449 1.724356
v -1.474437 3.271449 0.724356
v 0.525563 3.271449 1.724356
v -1.790729 2.199256 1.207260
v 0.209272 2.199256 2.207260
v 0.209272 2.199256 1.207260
v -1.790729 2.199256 2.207260
v 0.234093 2.215944 -1.160331
v -1.765907 2.215944 -1.160331
v -1.765907 2.215944 -2.160331
v 0.234093 2.215944 -2.160331
v -1.459544 3.281462 -0.696199
v -1.459544 3.281462 -1.696199
v 0.540456 3.281462 -1.696199
v 0.540456 3.281462 -0.696199
v -1.360506 2.711271 1.618921
v 0.639494 2.711271 1.618921
v 0.486313 2.178512 1.386855
v -1.513687 2.178512 1.386855
vn -0.0000 1.0000 -0.0000
vn -0.0000 0.2867 -0.9580
vn 0.9580 0.2867 -0.0000
vn -0.0000 -0.3994 0.9168
vn -0.9580 0.2867 -0.0000
vn -0.0000 0.2867 0.9580
vn -0.0000 0.3899 0.9208
vn -0.9208 0.3899 -0.0000
vn 0.9208 0.3899 -0.0000
vn -0.0000 0.3899 -0.9208
vn -0.0000 -0.4107 -0.9118
vn -0.0000 -1.0000 -0.0000
vn -0.9611 0.2763 -0.0000
vn -0.0000 0.3994 -0.9168
vn 0.9611 -0.2763 -0.0000
vn -0.0000 0.4107 0.9118
vn -0.9591 0.2829 -0.0000
vn 0.9591 -0.2829 -0.0000
vn 0.9670 -0.2348 -0.0992
vn -0.9670 0.2348 0.0992
vn -0.0000 -0.9999 -0.0147
vn -0.0000 0.9999 0.0147
vt 0.875000 0.625000
vt 0.625000 0.750000
vt 0.625000 0.625000
vt 0.500000 1.000000
vt 0.500000 0.750000
vt 0.500000 0.125000
vt 0.625000 0.250000
vt 0.500000 0.250000
vt 0.375000 0.625000
vt 0.125000 0.625000
vt 0.125000 0.625000
vt 0.500000 0.625000
vt 0.500000 0.500000
vt 0.375000 0.500000
vt 0.375000 0.250000
vt 0.375000 0.625000
vt 0.375000 0.750000
vt 0.375000 0.125000
vt 0.375000 1.000000
vt 0.500000 0.000000
vt 0.375000 0.000000
vt 0.625000 0.500000
vt 0.625000 0.000000
vt 0.875000 0.500000
vt 0.125000 0.750000
vt 0.375000 0.750000
vt 0.125000 0.500000
vt 0.375000 0.000000
vt 0.375000 0.750000
vt 0.375000 0.625000
vt 0.375000 0.250000
vt 0.375000 0.625000
vt 0.375000 0.500000
vt 0.375000 0.625000
vt 0.375000 0.250000
vt 0.375000 0.250000
vt 0.875000 0.750000
vt 0.625000 1.000000
vt 0.625000 0.125000
s 0
usemtl Material
f 15/1/1 3/2/1 14/3/1
f 3/2/2 10/4/2 11/5/2
f 18/6/3 5/7/3 12/8/3
f 39/9/4 21/10/4 42/11/4
f 17/12/5 3/2/5 11/5/5
f 5/7/6 9/13/6 12/8/6
f 12/8/7 2/14/7 6/15/7
f 16/16/8 11/5/8 4/17/8
f 13/18/9 12/8/9 6/15/9
f 11/5/10 8/19/10 4/17/10
f 10/20/9 13/18/9 8/21/9
f 9/13/8 16/16/8 2/14/8
f 1/22/5 17/12/5 9/13/5
f 45/16/11 25/10/11 26/16/11
f 7/23/3 18/6/3 10/20/3
f 5/24/1 14/3/1 1/22/1
f 22/16/12 20/25/12 21/10/12
f 40/26/13 22/16/13 39/9/13
f 40/26/14 20/19/14 19/17/14
f 41/21/15 21/18/15 20/21/15
f 23/14/12 25/10/12 24/27/12
f 44/14/16 24/15/16 46/15/16
f 44/14/17 26/16/17 23/14/17
f 46/15/18 25/18/18 43/18/18
f 65/28/15 28/18/15 30/21/15
f 64/26/14 30/19/14 29/29/14
f 64/26/13 27/9/13 63/30/13
f 63/30/4 28/10/4 66/10/4
f 54/31/18 31/18/18 51/18/18
f 52/14/17 32/32/17 33/33/17
f 52/14/16 34/15/16 54/31/16
f 53/16/11 31/10/11 32/32/11
f 16/16/4 35/10/4 13/10/4
f 4/17/13 36/32/13 16/16/13
f 4/17/14 38/19/14 37/17/14
f 8/21/15 35/18/15 38/21/15
f 62/21/15 42/18/15 41/21/15
f 61/17/14 41/19/14 40/26/14
f 61/17/13 39/9/13 60/34/13
f 60/34/4 42/11/4 59/10/4
f 56/35/18 43/18/18 57/18/18
f 58/14/17 45/16/17 44/14/17
f 58/14/16 46/15/16 56/35/16
f 55/9/11 43/10/11 45/16/11
f 16/16/11 49/10/11 47/16/11
f 2/14/16 48/36/16 6/15/16
f 2/14/17 47/16/17 50/14/17
f 6/15/18 49/18/18 13/18/18
f 47/16/11 51/10/11 53/16/11
f 50/14/16 54/31/16 48/36/16
f 50/14/17 53/16/17 52/14/17
f 48/36/18 51/18/18 49/18/18
f 32/32/11 57/10/11 55/9/11
f 33/33/16 56/35/16 34/15/16
f 33/33/17 55/9/17 58/14/17
f 34/15/18 57/18/18 31/18/18
f 28/18/19 69/18/19 59/18/19
f 29/29/13 60/34/13 27/9/13
f 29/29/14 62/19/14 61/17/14
f 30/21/15 59/18/15 62/21/15
f 36/32/4 66/10/4 35/10/4
f 37/17/13 63/30/13 36/32/13
f 37/17/14 65/19/14 64/26/14
f 38/21/15 66/18/15 65/28/15
f 67/9/4 69/10/4 68/10/4
f 27/9/20 70/34/20 67/9/20
f 59/10/21 70/34/21 60/34/21
f 28/10/22 67/9/22 68/10/22
f 15/1/1 7/37/1 3/2/1
f 3/2/2 7/38/2 10/4/2
f 18/6/3 15/39/3 5/7/3
f 39/9/4 22/16/4 21/10/4
f 17/12/5 14/3/5 3/2/5
f 5/7/6 1/22/6 9/13/6
f 12/8/7 9/13/7 2/14/7
f 16/16/8 17/12/8 11/5/8
f 13/18/9 18/6/9 12/8/9
f 11/5/10 10/4/10 8/19/10
f 10/20/9 18/6/9 13/18/9
f 9/13/8 17/12/8 16/16/8
f 1/22/5 14/3/5 17/12/5
f 45/16/11 43/10/11 25/10/11
f 7/23/3 15/39/3 18/6/3
f 5/24/1 15/1/1 14/3/1
f 22/16/12 19/17/12 20/25/12
f 40/26/13 19/17/13 22/16/13
f 40/26/14 41/19/14 20/19/14
f 41/21/15 42/18/15 21/18/15
f 23/14/12 26/16/12 25/10/12
f 44/14/16 23/14/16 24/15/16
f 44/14/17 45/16/17 26/16/17
f 46/15/18 24/15/18 25/18/18
f 65/28/15 66/18/15 28/18/15
f 64/26/14 65/19/14 30/19/14
f 64/26/13 29/29/13 27/9/13
f 63/30/4 27/9/4 28/10/4
f 54/31/18 34/15/18 31/18/18
f 52/14/17 53/16/17 32/32/17
f 52/14/16 33/33/16 34/15/16
f 53/16/11 51/10/11 31/10/11
f 16/16/4 36/32/4 35/10/4
f 4/17/13 37/17/13 36/32/13
f 4/17/14 8/19/14 38/19/14
f 8/21/15 13/18/15 35/18/15
f 62/21/15 59/18/15 42/18/15
f 61/17/14 62/19/14 41/19/14
f 61/17/13 40/26/13 39/9/13
f 60/34/4 39/9/4 42/11/4
f 56/35/18 46/15/18 43/18/18
f 58/14/17 55/9/17 45/16/17
f 58/14/16 44/14/16 46/15/16
f 55/9/11 57/10/11 43/10/11
f 16/16/11 13/10/11 49/10/11
f 2/14/16 50/14/16 48/36/16
f 2/14/17 16/16/17 47/16/17
f 6/15/18 48/36/18 49/18/18
f 47/16/11 49/10/11 51/10/11
f 50/14/16 52/14/16 54/31/16
f 50/14/17 47/16/17 53/16/17
f 48/36/18 54/31/18 51/18/18
f 32/32/11 31/10/11 57/10/11
f 33/33/16 58/14/16 56/35/16
f 33/33/17 32/32/17 55/9/17
f 34/15/18 56/35/18 57/18/18
f 28/18/19 68/18/19 69/18/19
f 29/29/13 61/17/13 60/34/13
f 29/29/14 30/19/14 62/19/14
f 30/21/15 28/18/15 59/18/15
f 36/32/4 63/30/4 66/10/4
f 37/17/13 64/26/13 63/30/13
f 37/17/14 38/19/14 65/19/14
f 38/21/15 35/18/15 66/18/15
f 67/9/4 70/34/4 69/10/4
f 27/9/20 60/34/20 70/34/20
f 59/10/21 69/10/21 70/34/21
f 28/10/22 27/9/22 67/9/22
