# Blender 3.6.0
# www.blender.org
mtllib tower.mtl
o Cube
v -14.673088 22.056866 -8.444720
v -14.673088 0.159804 -8.444720
v -14.673088 22.056866 -10.444720
v -14.673088 0.159804 -10.444720
v -12.673088 22.056866 -8.444720
v -12.673088 0.159804 -8.444720
v -12.673088 22.056866 -10.444720
v -12.673088 0.159804 -10.444720
v -14.673088 11.108335 -8.444720
v -12.673088 11.108335 -10.444720
v -14.673088 11.108335 -10.444720
v -12.673088 11.108335 -8.444720
v -12.673088 16.582600 -10.444720
v -14.673088 16.582600 -8.444720
v -14.673088 16.582600 -10.444720
v -12.673088 16.582600 -8.444720
v -7.216963 19.319733 -15.900845
v -20.129213 19.319733 -2.988595
v -20.129213 19.319733 -15.900845
v -7.216963 19.319733 -2.988595
v -7.216963 20.688299 -15.900845
v -20.129213 20.688299 -2.988595
v -20.129213 20.688299 -15.900845
v -7.216963 20.688299 -2.988595
vn -0.0000 1.0000 -0.0000
vn -0.0000 0.9700 -0.2433
vn 0.2433 0.9700 -0.0000
vn -0.0000 -1.0000 -0.0000
vn -0.2433 0.9700 -0.0000
vn -0.0000 0.9700 0.2433
vn -0.0000 -0.0000 1.0000
vn -1.0000 -0.0000 -0.0000
vn 1.0000 -0.0000 -0.0000
vn -0.0000 -0.0000 -1.0000
vn -0.0000 -0.8938 0.4484
vn -0.4484 -0.8938 -0.0000
vn 0.4484 -0.8938 -0.0000
vn -0.0000 -0.8938 -0.4484
vt 0.875000 0.500000
vt 0.625000 0.750000
vt 0.625000 0.500000
vt 0.609375 1.000000
vt 0.609375 0.750000
vt 0.625000 0.000000
vt 0.609375 0.250000
vt 0.609375 0.000000
vt 0.375000 0.500000
vt 0.125000 0.750000
vt 0.125000 0.500000
vt 0.609375 0.500000
vt 0.625000 0.250000
vt 0.500000 0.250000
vt 0.375000 0.250000
vt 0.500000 0.500000
vt 0.375000 0.750000
vt 0.500000 0.000000
vt 0.375000 0.000000
vt 0.500000 0.750000
vt 0.375000 1.000000
vt 0.562500 0.250000
vt 0.562500 0.500000
vt 0.562500 0.000000
vt 0.562500 0.750000
vt 0.500000 1.000000
vt 0.593750 0.250000
vt 0.593750 0.500000
vt 0.593750 0.000000
vt 0.593750 0.750000
vt 0.562500 1.000000
vt 0.593750 1.000000
vt 0.875000 0.750000
vt 0.625000 1.000000
s 0
usemtl Material
f 5/1/1 3/2/1 1/3/1
f 3/2/2 21/4/2 23/5/2
f 7/6/3 24/7/3 21/8/3
f 2/9/4 8/10/4 6/11/4
f 1/3/5 23/5/5 22/12/5
f 5/13/6 22/12/6 24/7/6
f 12/14/7 2/9/7 6/15/7
f 9/16/8 4/17/8 2/9/8
f 10/18/9 6/15/9 8/19/9
f 11/20/10 8/21/10 4/17/10
f 16/22/7 9/16/7 12/14/7
f 14/23/8 11/20/8 9/16/8
f 13/24/9 12/14/9 10/18/9
f 15/25/10 10/26/10 11/20/10
f 20/27/11 14/23/11 16/22/11
f 18/28/12 15/25/12 14/23/12
f 17/29/13 16/22/13 13/24/13
f 19/30/14 13/31/14 15/25/14
f 24/7/7 18/28/7 20/27/7
f 22/12/8 19/30/8 18/28/8
f 21/8/9 20/27/9 17/29/9
f 23/5/10 17/32/10 19/30/10
f 5/1/1 7/33/1 3/2/1
f 3/2/2 7/34/2 21/4/2
f 7/6/3 5/13/3 24/7/3
f 2/9/4 4/17/4 8/10/4
f 1/3/5 3/2/5 23/5/5
f 5/13/6 1/3/6 22/12/6
f 12/14/7 9/16/7 2/9/7
f 9/16/8 11/20/8 4/17/8
f 10/18/9 12/14/9 6/15/9
f 11/20/10 10/26/10 8/21/10
f 16/22/7 14/23/7 9/16/7
f 14/23/8 15/25/8 11/20/8
f 13/24/9 16/22/9 12/14/9
f 15/25/10 13/31/10 10/26/10
f 20/27/11 18/28/11 14/23/11
f 18/28/12 19/30/12 15/25/12
f 17/29/13 20/27/13 16/22/13
f 19/30/14 17/32/14 13/31/14
f 24/7/7 22/12/7 18/28/7
f 22/12/8 23/5/8 19/30/8
f 21/8/9 24/7/9 20/27/9
f 23/5/10 21/4/10 17/32/10
