# Blender 3.5.0
# www.blender.org
mtllib trace.mtl
o Cube
v -0.605561 0.842108 0.609172
v -0.500000 0.000000 0.500000
v -0.162054 1.000000 -0.808409
v -0.500000 0.000000 -0.500000
v 0.815348 1.000000 0.779550
v 0.500000 0.000000 0.500000
v 0.500000 1.439198 -0.500000
v 0.500000 0.000000 -0.500000
vn -0.5282 0.8461 -0.0710
vn -0.0000 -0.2947 -0.9556
vn 0.9537 -0.3007 -0.0000
vn -0.0000 -1.0000 -0.0000
vn -0.9922 -0.1244 -0.0000
vn -0.0000 -0.1286 0.9917
vn -0.1450 0.9243 0.3530
vn 0.4223 -0.0000 -0.9065
vn 0.9709 -0.0000 -0.2393
vn -0.9350 0.2338 -0.2665
vn -0.0890 -0.2420 0.9662
vt 0.625000 0.500000
vt 0.375000 0.500000
vt 0.625000 0.750000
vt 0.375000 0.750000
vt 0.875000 0.500000
vt 0.625000 0.250000
vt 0.125000 0.500000
vt 0.375000 0.250000
vt 0.875000 0.750000
vt 0.625000 1.000000
vt 0.625000 0.000000
vt 0.375000 1.000000
vt 0.375000 0.000000
vt 0.125000 0.750000
s 0
usemtl Material
f 1/1/1 7/9/1 3/3/1
f 3/3/2 8/12/2 4/4/2
f 8/13/3 5/6/3 6/8/3
f 2/2/4 8/14/4 6/7/4
f 1/1/5 4/4/5 2/2/5
f 6/8/6 1/1/6 2/2/6
f 1/1/7 5/5/7 7/9/7
f 3/3/8 7/10/8 8/12/8
f 8/13/9 7/11/9 5/6/9
f 2/2/4 4/4/4 8/14/4
f 1/1/10 3/3/10 4/4/10
f 6/8/11 5/6/11 1/1/11
